<svg xmlns="http://www.w3.org/2000/svg" xmlns:xlink="http://www.w3.org/1999/xlink" width="72" height="72" viewBox="0 0 72 72"><defs><linearGradient id="a" y1="0.5" x2="1" y2="0.5" gradientUnits="objectBoundingBox"><stop offset="0" stop-color="#e6d18e"/><stop offset="1" stop-color="#b99462"/></linearGradient></defs><g transform="translate(3298 -1782)"><g transform="translate(-6978.269 -1235.452)"><ellipse cx="30" cy="30.5" rx="30" ry="30.5" transform="translate(3686.268 3023)" fill="#333f48"/><path d="M30,0C13.431,0,0,13.655,0,30.5S13.431,61,30,61,60,47.345,60,30.5,46.569,0,30,0m0-3A32.374,32.374,0,0,1,42.862-.359,32.863,32.863,0,0,1,53.352,6.83a33.929,33.929,0,0,1,7.06,36.695,33.418,33.418,0,0,1-7.06,10.646,32.863,32.863,0,0,1-10.49,7.189,32.644,32.644,0,0,1-25.725,0A32.863,32.863,0,0,1,6.648,54.17,33.929,33.929,0,0,1-.412,17.476,33.418,33.418,0,0,1,6.648,6.83,32.863,32.863,0,0,1,17.138-.359,32.374,32.374,0,0,1,30-3Z" transform="translate(3686.268 3023)" fill="#fff"/><g transform="translate(3704.268 3035.855)"><path d="M104.712,213.514a4.919,4.919,0,0,1-4.048,6.242h.824a5.674,5.674,0,0,0,5.092-8.813c-3.363-5.891-6.77-11.756-10.134-17.648a2.911,2.911,0,0,1-.177-3.191c.967-1.675,2.51-1.447,4.128-1.442h3.583l-3.509,6.078-.026.045,1.6,2.763.021-.037,5.109-8.849c.722-1.251.454-2.764-1.6-2.764H100.4c-.695,0-1.507-.052-2.185.018a5.682,5.682,0,0,0-4.14,8.795c3.363,5.892,6.771,11.758,10.134,17.648l.027.049.032.046a2.9,2.9,0,0,1,.448,1.061Z" transform="translate(-84.599 -185.879)" fill-rule="evenodd" fill="url(#a)"/><path d="M80.915,192.134a4.92,4.92,0,0,1,4.048-6.242H84.14a5.673,5.673,0,0,0-5.092,8.813c3.363,5.891,6.77,11.756,10.134,17.648a2.91,2.91,0,0,1,.177,3.191c-.966,1.675-2.51,1.447-4.127,1.443H81.648l3.509-6.078.025-.045-1.6-2.764-.022.037-5.109,8.85c-.722,1.25-.454,2.764,1.6,2.764h5.179c.695,0,1.507.052,2.185-.018a5.681,5.681,0,0,0,4.14-8.795c-3.363-5.892-6.771-11.758-10.134-17.648l-.028-.049-.032-.046a2.91,2.91,0,0,1-.448-1.061Z" transform="translate(-78.094 -185.879)" fill-rule="evenodd" fill="url(#a)"/></g></g><rect width="72" height="72" transform="translate(-3298 1782)" fill="none"/></g></svg>